<?xml version="1.0" standalone="no"?>
<!DOCTYPE svg PUBLIC "-//W3C//DTD SVG 20010904//EN"
 "http://www.w3.org/TR/2001/REC-SVG-20010904/DTD/svg10.dtd">
<svg version="1.0" xmlns="http://www.w3.org/2000/svg"
 width="260.000000pt" height="260.000000pt" viewBox="0 0 260.000000 260.000000"
 preserveAspectRatio="xMidYMid meet">
<metadata>
Created by potrace 1.11, written by Peter Selinger 2001-2013
</metadata>
<g transform="translate(0.000000,260.000000) scale(0.100000,-0.100000)"
fill="#000000" stroke="none">
<path d="M1155 2589 c-375 -51 -694 -258 -897 -579 -295 -469 -232 -1081 152
-1493 229 -246 555 -387 891 -387 206 0 362 36 545 125 254 123 449 318 570
570 97 201 130 367 121 595 -23 570 -435 1045 -999 1155 -103 20 -290 27 -383
14z m341 -104 c177 -31 346 -103 485 -206 81 -60 212 -195 266 -274 309 -456
252 -1057 -137 -1445 -388 -389 -986 -446 -1445 -137 -78 52 -213 184 -275
267 -140 189 -220 432 -220 669 0 558 401 1033 950 1126 105 18 271 18 376 0z"/>
<path d="M1175 2429 c-424 -54 -780 -359 -899 -772 -90 -310 -34 -639 155
-912 71 -103 216 -238 324 -302 473 -282 1078 -165 1407 271 266 353 291 821
65 1201 -64 108 -199 253 -302 324 -225 156 -489 223 -750 190z m-327 -611
c38 -117 75 -239 83 -271 7 -32 16 -54 20 -50 4 4 14 35 23 68 8 33 43 150 79
260 l64 200 100 3 101 3 4 -327 c1 -180 1 -347 -1 -371 l-3 -43 -64 0 -64 0
-1 73 c-1 39 -1 171 0 292 0 139 -3 211 -8 195 -5 -14 -32 -99 -60 -190 -27
-91 -65 -210 -84 -265 l-34 -100 -55 -3 -55 -3 -50 153 c-27 84 -67 213 -89
286 l-39 134 -3 -286 -2 -286 -70 0 -70 0 0 370 0 370 104 0 105 0 69 -212z
m1005 -347 c45 -15 102 -62 124 -105 22 -41 22 -151 1 -191 -20 -37 -63 -78
-105 -99 -18 -9 -33 -19 -33 -21 0 -3 33 -55 73 -117 40 -62 83 -130 96 -150
l23 -38 -85 0 -85 0 -84 138 -85 137 -91 3 -92 3 0 -141 0 -141 -77 3 -78 3
-3 355 c-1 195 0 361 3 368 7 18 440 12 498 -7z"/>
<path d="M1510 1259 l0 -111 136 4 136 3 29 33 c22 24 29 42 29 73 0 89 -38
109 -210 109 l-120 0 0 -111z"/>
</g>
</svg>
