<?xml version="1.0" standalone="no"?>
<!DOCTYPE svg PUBLIC "-//W3C//DTD SVG 20010904//EN"
 "http://www.w3.org/TR/2001/REC-SVG-20010904/DTD/svg10.dtd">
<svg version="1.0" xmlns="http://www.w3.org/2000/svg"
 width="262.000000pt" height="262.000000pt" viewBox="0 0 262.000000 262.000000"
 preserveAspectRatio="xMidYMid meet">
<metadata>
Created by potrace 1.11, written by Peter Selinger 2001-2013
</metadata>
<g transform="translate(0.000000,262.000000) scale(0.100000,-0.100000)"
fill="#000000" stroke="none">
<path d="M1515 2588 c-46 -17 -86 -46 -131 -96 l-41 -45 -28 21 c-32 26 -114
52 -161 52 -81 0 -186 -58 -244 -135 l-32 -43 -57 26 c-45 22 -71 26 -136 27
-71 0 -88 -4 -147 -33 -103 -51 -188 -154 -228 -277 -7 -22 -18 -80 -24 -129
l-11 -88 -45 -15 c-70 -23 -125 -74 -162 -151 -30 -60 -33 -76 -33 -152 0 -76
4 -93 33 -152 18 -36 47 -79 65 -95 30 -26 32 -32 21 -49 -7 -10 -21 -48 -30
-84 -28 -110 -4 -230 63 -319 29 -37 108 -91 134 -91 10 0 29 -19 43 -45 15
-25 51 -69 81 -98 l54 -53 -32 -17 c-65 -35 -102 -129 -79 -196 10 -29 9 -32
-18 -46 -29 -15 -60 -60 -60 -87 0 -8 -16 -20 -35 -27 -43 -15 -69 -60 -60
-102 8 -34 56 -69 95 -69 33 0 87 33 94 58 4 11 19 22 34 25 43 9 81 44 88 82
6 33 8 35 47 35 126 0 220 132 174 243 l-16 37 32 0 c52 1 115 18 180 51 l61
30 21 -28 c42 -58 75 -89 128 -121 69 -42 142 -61 233 -63 61 -2 81 3 138 29
84 40 163 118 207 207 17 36 32 65 33 65 0 0 23 -7 50 -15 62 -19 119 -19 182
0 57 17 139 77 166 120 45 74 80 158 91 220 13 67 13 68 52 80 63 18 99 41
151 92 135 135 172 383 85 569 -31 67 -32 68 -19 140 14 88 1 175 -39 260 -26
55 -111 149 -144 159 -10 3 -36 43 -58 89 -70 145 -186 226 -302 213 -55 -7
-122 -38 -161 -75 l-27 -25 -36 31 c-19 18 -49 39 -67 48 -39 20 -134 27 -173
12z"/>
</g>
</svg>
